# xmcd
#
# Track frame offsets: 
#        150
#        24880
#        48909
#        74620
#        101320
#        124318
#        146766
#        170753
#        197961
#        219736
#        245130
#        275239
#
# Disc length: 4040 seconds
#
# Revision: 0
# Processed by: cddbd v1.5.2PL0 Copyright (c) Steve Scherf et al.
# Submitted via: ExactAudioCopy v1.0b1
#
DISCID=c30fc60c
DTITLE=Rush  - Allentown Fair Allentown Pa - August 31 2010 - Disc 1
DYEAR=1900
DGENRE=
TTITLE0=Intro Film "Rash: The Real History Of Rush - Episode No. 2: Do
TTITLE0=n't Be Rash
TTITLE1=The Spirit Of Radio
TTITLE2=Time Stand Still
TTITLE3=Presto
TTITLE4=Stick It Out
TTITLE5=Workin' Them Angels
TTITLE6=Leave That Thing Alone
TTITLE7=Faithless
TTITLE8=Bu2B
TTITLE9=Freewill
TTITLE10=Marathon
TTITLE11=Subdivisions
EXTD=
EXTT0=
EXTT1=
EXTT2=
EXTT3=
EXTT4=
EXTT5=
EXTT6=
EXTT7=
EXTT8=
EXTT9=
EXTT10=
EXTT11=
PLAYORDER=
